<svg xmlns="http://www.w3.org/2000/svg" width="300" height="300" viewBox="0 0 300 300"><path fill="#FFF" d="M122.38 51.797l-.593 19.343h-77.96v14.802h78.947V111.6H57.642v14.014l66.118-.593 66.316-.59-1.184 4.735c-2.96 11.448-15.593 42.04-17.96 43.026-1.383.396-11.054-1.775-21.91-4.934-32.96-10.065-49.342-13.025-71.644-13.025-22.698.198-37.5 4.343-51.71 14.41-27.632 19.735-29.803 58.42-4.145 79.933 27.236 22.895 71.842 25.066 112.302 5.33 14.408-6.91 40.263-25.66 48.947-35.33l3.553-4.145 11.25 5.526c11.25 5.724 80.724 37.895 92.566 42.83l6.316 2.762v-50.724l-17.17-4.54c-15.593-4.144-55.462-16.578-68.29-21.513l-4.936-1.975 6.514-13.42c6.908-13.816 20.724-52.896 20.724-58.62 0-2.763-3.948-3.157-34.54-3.157h-34.54V85.94h82.897V72.916c0-.592-18.75-.986-41.448-.79l-41.447.198v-39.67h-41.25l-.59 19.144zm-7.7 128.684c10.265 3.554 23.883 9.08 30.2 12.435l11.446 6.12-6.316 7.894c-3.552 4.34-11.644 11.84-18.355 16.775-22.5 16.776-43.42 23.29-70.263 21.71-28.026-1.58-43.026-13.025-44.803-34.342-1.185-13.224 1.776-20.724 10.855-27.632 11.447-8.684 20.723-10.656 45.986-10.064 19.344.593 25.462 1.776 41.25 7.105z"/></svg>