<svg xmlns="http://www.w3.org/2000/svg" width="300" height="300"><path fill="#FFF" d="M93.644 44.969C15.537 58.92-10.499 147.165 51.629 187.557c3.407 2.189 3.407 1.946-1.704 17.195l-4.38 13.058 15.735-8.435 15.735-8.436 8.354 2.027c8.759 2.19 19.953 3.731 27.414 3.731h4.461l-1.542-5.922c-12.247-45.096 30.091-89.786 85.164-89.786h7.461l-1.54-5.353C194.703 63.38 143.688 36.048 93.644 44.969zm-6.813 39.5c8.272 5.597 8.759 17.682.81 22.873-12.895 8.435-27.981-6.408-19.303-19.061 3.811-5.678 12.977-7.543 18.493-3.812zm66.508 0c13.626 9.166 3.407 30.334-11.842 24.495-11.03-4.217-12.329-19.385-2.028-24.819 4.055-2.19 10.383-2.029 13.87.324zm30.091 33.416c-38.688 7.057-65.535 36.417-63.994 70.158 2.028 45.178 54.992 76.323 105.846 62.372l6.002-1.621 12.653 6.813c6.975 3.812 12.814 6.57 12.977 6.245.163-.405-1.216-5.271-3-10.868-4.056-12.491-4.137-11.599 1.298-15.491 61.153-43.88 7.461-131.963-71.782-117.608zm-1.541 36.417c3.406 2.271 5.19 7.949 3.73 12.086-3.081 8.841-16.302 9.488-19.872.973-4.055-9.814 7.139-18.898 16.142-13.059zm54.18.974c5.353 5.109 4.46 13.789-1.785 17.032-9.57 4.867-19.628-4.866-14.68-14.193 3.244-6.002 11.599-7.462 16.465-2.839z"/></svg>