<svg class="icon" viewBox="0 0 1025 1024" xmlns="http://www.w3.org/2000/svg" width="24" height="24"><defs><style></style></defs><path d="M510.257 178.266c-139.235 0-252.1 110.566-252.1 246.948 0 136.379 112.865 246.945 252.1 246.945 139.232 0 252.096-110.566 252.096-246.945-.055-136.382-112.864-246.948-252.096-246.948zM219.136 520.049V292.027c-3.191 0-6.381.11-9.462.389C261.348 180.222 376.395 102.07 510.257 102.07c133.859 0 248.96 78.152 300.578 190.346-3.135-.222-6.27-.39-9.46-.39V520.05c64.27 0 116.448-51.059 116.448-113.984 0-42.772-24.072-80.001-59.622-99.542C808.149 165.387 671.49 64.055 510.257 64.055c-161.236 0-297.84 101.332-347.948 242.468-35.55 19.485-59.623 56.77-59.623 99.486 0 62.981 52.123 114.04 116.45 114.04zm542.658 130.723c-65.893 60.242-154.292 97.133-251.536 97.133-97.077 0-185.365-36.724-251.203-96.795C141.26 710.454 63.89 816.207 63.89 959.808h895.753c0-143.879-78.771-249.746-197.85-309.036zm0 0" fill="#fff"></path></svg>