<svg xmlns="http://www.w3.org/2000/svg" width="128" height="128" viewBox="502.93 361.195 128 128"><g fill="#77797F"><path d="M566.93 420.862c-.368 0-.665-.298-.665-.667V394.86c0-.368.297-.665.666-.665.37 0 .667.297.667.666v25.335c0 .37-.298.667-.666.667z"/><path d="M558.93 403.528c-.17 0-.34-.065-.47-.195-.262-.26-.262-.682 0-.943l8-8c.26-.26.682-.26.94 0 .263.26.263.682 0 .943l-8 8c-.127.13-.3.195-.47.195z"/><path d="M574.93 403.528c-.17 0-.34-.065-.47-.195l-8-8c-.262-.26-.262-.682 0-.943.26-.26.682-.26.94 0l8 8c.262.26.262.682 0 .943-.128.13-.3.195-.47.195z"/><path d="M574.93 403.528c-.17 0-.34-.065-.47-.195l-8-8c-.262-.26-.262-.682 0-.943.26-.26.682-.26.94 0l8 8c.262.26.262.682 0 .943-.128.13-.3.195-.47.195zM585.597 426.195h-37.334v-8.667c0-.37.3-.666.668-.666.368 0 .667.297.667.666v7.334h34.667v-7.334c0-.37.298-.666.666-.666.37 0 .667.297.667.666v8.667z"/></g><text transform="translate(536.93 446.195)" fill="#77797F" font-family="'MicrosoftYaHeiLight'" font-size="12">上传收款码</text></svg>